<svg
          width="1027"
          height="426"
          viewBox="0 0 1027 426"
          fill="none"
          xmlns="http://www.w3.org/2000/svg"
        >
          <path
            d="M999.59 416.803H28.2321C28.2321 416.803 27.3942 408.779 27.1459 395.816C27.0059 388.264 27.056 379.032 27.5993 368.742C27.6459 367.903 27.6926 367.048 27.743 366.193C28.0271 361.476 28.4082 356.544 28.9225 351.465C28.9692 351.017 29.0162 350.561 29.0666 350.109C29.6276 344.797 30.3252 339.281 31.1955 333.607C31.9043 329.003 32.7208 324.289 33.6772 319.5C33.7419 319.165 33.8104 318.826 33.8785 318.491C34.3714 316.051 34.9 313.604 35.4648 311.127C35.6841 310.159 35.9106 309.188 36.1409 308.212C36.5939 306.311 37.0687 304.399 37.565 302.49C38.7735 297.798 40.122 293.077 41.6184 288.341C41.7692 287.863 41.9242 287.373 42.0751 286.884C42.755 284.775 43.4669 282.659 44.2043 280.54C45.3334 277.317 46.531 274.094 47.808 270.875C48.6027 268.857 49.4372 266.846 50.2966 264.828C58.4427 245.766 69.3544 227.103 83.9239 210.398C117.296 172.123 169.862 144.092 252.348 144.913C268.928 145.075 284.338 144.642 298.719 143.69H298.742C303.114 143.4 307.392 143.061 311.58 142.677L311.621 142.673C406.899 133.904 454.641 101.213 498.042 69.327C499.599 68.1824 501.153 67.0379 502.703 65.8971C517.885 54.7075 532.721 43.7325 549.091 34.0414C553.279 31.5565 557.576 29.162 562 26.8653C589.139 12.788 621.252 2.56602 665.631 0.363496C669.954 0.145126 674.175 0.178982 678.292 0.446297C679.864 0.544187 681.418 0.683521 682.957 0.852946C700.212 2.74674 715.473 8.89119 728.261 18.6124C761.537 43.9057 778.069 93.3891 769.416 155.165C763.557 197.002 776.79 219.686 799.459 234.513C862.206 275.57 997.212 256.455 999.59 416.803"
            fill="#F8FBFF"
          />
          <path
            d="M529.974 256.711V237.611H525.5V204.765H501.503V237.611H479.071V184.092H454.314V218.831H448.67V177.356H423.917V255.122H392.609V300.472H380.911V280.284H354.039V292.222H338.613V238.767H319.556V278.333H300.499V423.312H319.556H335.889H338.613H354.039H362.761H376.727H380.911H392.609H403.595H423.917H430.136H442.518H448.67H454.314H467.272H476.095H479.071H501.503H525.098H525.5H529.974H549.091V256.711H529.974Z"
            fill="#E7F1FB"
          />
          <path
            d="M798.654 322.365V423.312H558.426V335.464H576.84V311.492H595.257V343.882H610.168V336.646H636.129V348.878H647.435V321.401H677.69V274.282H701.612V299.414H707.067V278.364H730.989V310.791H752.665V290.89H775.857V310.791H780.18V322.365H798.654Z"
            fill="#E7F1FB"
          />
          <path
            d="M302.937 282.791V422.8H83.9239V300.965H100.712V267.716H117.501V312.636H131.092V302.599H154.768V319.568H165.072V281.462H192.653V216.109H214.462V250.962H219.436V221.764H241.245V266.741H261.012V239.14H282.152V266.741H286.094V282.791H302.937Z"
            fill="#E7F1FB"
          />
          <path
            d="M561.997 26.8654V422.394H549.091V34.0415C553.279 31.5566 557.572 29.162 561.997 26.8654"
            fill="#DEEDFF"
          />
          <path
            d="M311.621 142.673V422.394H298.719V143.69L311.621 142.673Z"
            fill="#DEEDFF"
          />
          <path
            d="M502.703 65.8972V96.6459C502.703 100.516 501.725 103.671 500.529 103.671H500.216C499.02 103.671 498.042 100.516 498.042 96.6459V69.3271C499.599 68.1825 501.153 67.0379 502.703 65.8972"
            fill="#F99746"
          />
          <path
            d="M499.159 91.2658C482.175 91.2658 468.408 105.836 468.408 123.807H529.91C529.91 105.836 516.143 91.2658 499.159 91.2658"
            fill="#F99746"
          />
          <path
            d="M501.608 91.6611C500.724 91.4691 499.825 91.3674 498.907 91.3674C487.842 91.3674 478.872 105.889 478.872 123.807H484.275C484.275 107.372 491.822 93.7996 501.608 91.6611"
            fill="#FFB278"
          />
          <path
            d="M682.957 0.853033V89.21C682.957 89.9856 682.946 90.7461 682.927 91.4841C682.762 98.374 681.859 103.671 680.775 103.671H680.466C679.466 103.671 678.615 99.112 678.367 92.9562C678.344 92.4479 678.326 91.9284 678.318 91.4013C678.318 91.3636 678.314 91.326 678.314 91.2883C678.299 90.6106 678.292 89.9179 678.292 89.21V0.446384C679.864 0.544274 681.418 0.683608 682.957 0.853033"
            fill="#F99746"
          />
          <path
            d="M679.409 91.2658C662.425 91.2658 648.658 105.836 648.658 123.807H710.164C710.164 105.836 696.393 91.2658 679.409 91.2658Z"
            fill="#F99746"
          />
          <path
            d="M681.859 91.6611C680.974 91.4691 680.075 91.3674 679.157 91.3674C668.092 91.3674 659.122 105.889 659.122 123.807H664.525C664.525 107.372 672.072 93.7996 681.859 91.6611"
            fill="#FFB278"
          />
          <path
            d="M999.59 422.883H798.654V422.94H728.261V18.6125C761.537 44.2898 778.069 94.53 769.416 157.247C763.557 199.724 776.79 222.755 799.459 237.807C862.206 279.489 997.212 260.085 999.59 422.883Z"
            fill="#DEEDFF"
          />
          <path
            d="M875.503 375.12C875.503 375.12 867.749 366.066 875.025 360.316C875.025 360.316 880.338 357.097 884.672 357.357C884.672 357.357 878.532 367.662 880.519 368.686C882.505 369.71 886.531 356.713 886.531 356.713C886.531 356.713 898.628 355.539 902.518 357.41C902.518 357.41 892.179 365.877 894.357 366.382C896.532 366.886 907.703 358.573 907.703 358.573C907.703 358.573 918.956 360.493 918.358 367.364C917.756 374.236 913.877 376.355 912.173 376.175C910.468 375.99 900.497 372.18 900.279 373.58C900.065 374.977 906.066 379.544 910.269 379.759C910.269 379.759 902.334 388.516 897.059 385.99C891.784 383.46 891.336 379.454 888.047 377.952C884.759 376.449 881.952 376.453 883.31 377.986C884.669 379.518 890.617 381.009 892.498 384.337C894.376 387.662 896.065 389.909 890.606 389.085C885.15 388.264 876.282 384.269 875.891 379.695C875.503 375.12 875.503 375.12 875.503 375.12"
            fill="#82B378"
          />
          <path
            d="M912.827 367.549C912.827 367.549 882.253 366.37 875.503 375.12C875.503 375.12 874.009 379.593 869.415 383.667L868.697 385.621C868.697 385.621 873.994 380.034 875.891 379.695C875.891 379.695 872.926 368.855 912.827 367.549Z"
            fill="#82B378"
          />
          <path
            d="M869.415 383.667C869.415 383.667 862.85 388.524 862.395 397.202L863.587 397.307C863.587 397.307 865.683 388.335 869.472 384.827C873.261 381.318 869.415 383.667 869.415 383.667"
            fill="#82B378"
          />
          <path
            d="M848.391 363.735C848.391 363.735 860.724 356.822 854.971 347.44C854.971 347.44 850.366 341.683 845.429 340.2C845.429 340.2 848.063 354.191 845.429 354.518C842.799 354.846 843.62 338.72 843.62 338.72C843.62 338.72 830.628 332.467 825.53 332.96C825.53 332.96 833.589 346.619 830.959 346.288C828.325 345.96 819.28 332.135 819.28 332.135C819.28 332.135 805.961 329.669 803.82 337.568C801.683 345.467 805.137 349.417 807.112 349.91C809.084 350.403 821.748 350.241 821.421 351.886C821.09 353.532 812.538 356.163 807.767 354.684C807.767 354.684 813.031 367.684 819.939 367.026C826.846 366.367 828.984 362.09 833.262 361.758C837.536 361.431 840.662 362.583 838.525 363.735C836.384 364.887 829.149 364.111 825.695 367.052C822.241 369.989 819.446 371.8 825.861 373.114C832.272 374.431 843.785 373.61 846.088 368.671C848.391 363.735 848.391 363.735 848.391 363.735"
            fill="#A8D29F"
          />
          <path
            d="M809.908 340.034C809.908 340.034 844.444 351.228 848.391 363.735C848.391 363.735 848.225 369.33 851.679 375.749V378.215C851.679 378.215 848.063 369.823 846.088 368.671C846.088 368.671 853.82 357.809 809.908 340.034"
            fill="#82B378"
          />
          <path
            d="M851.679 375.749C851.679 375.749 857.007 383.84 853.97 393.693L852.601 393.324C852.601 393.324 853.929 382.473 851.145 377.018C848.357 371.559 851.679 375.749 851.679 375.749Z"
            fill="#82B378"
          />
          <path
            d="M868.016 354.202C868.016 354.202 851.754 345.091 859.343 332.726C859.343 332.726 865.412 325.132 871.917 323.178C871.917 323.178 868.448 341.619 871.917 342.052C875.386 342.489 874.303 321.228 874.303 321.228C874.303 321.228 891.43 312.983 898.15 313.634C898.15 313.634 887.524 331.642 890.993 331.205C894.462 330.772 906.386 312.55 906.386 312.55C906.386 312.55 923.945 309.297 926.763 319.711C929.582 330.121 925.033 335.328 922.429 335.979C919.829 336.631 903.135 336.412 903.568 338.581C904 340.753 915.276 344.221 921.564 342.271C921.564 342.271 914.626 359.409 905.52 358.539C896.415 357.673 893.597 352.033 887.961 351.6C882.325 351.164 878.205 352.685 881.023 354.202C883.841 355.719 893.379 354.699 897.931 358.573C902.484 362.444 906.171 364.831 897.713 366.566C889.259 368.302 874.085 367.218 871.048 360.712C868.016 354.202 868.016 354.202 868.016 354.202"
            fill="#A8D29F"
          />
          <path
            d="M918.745 322.964C918.745 322.964 873.219 337.715 868.016 354.202C868.016 354.202 868.23 361.578 863.678 370.038V373.291C863.678 373.291 868.448 362.229 871.048 360.712C871.048 360.712 860.859 346.393 918.745 322.964"
            fill="#82B378"
          />
          <path
            d="M863.678 370.038C863.678 370.038 856.657 380.708 860.66 393.693L862.466 393.207C862.466 393.207 860.713 378.904 864.385 371.709C868.061 364.514 863.678 370.038 863.678 370.038"
            fill="#82B378"
          />
          <path
            d="M867.466 421.855C885.056 421.855 899.316 407.586 899.316 389.985H835.617C835.617 407.586 849.877 421.855 867.466 421.855Z"
            fill="#F1A34F"
          />
          <path
            d="M875.304 421.61C874.009 421.776 872.689 421.855 871.346 421.855C853.756 421.855 839.5 407.586 839.5 389.985H847.412C847.412 406.246 859.58 419.664 875.304 421.61"
            fill="#FFB973"
          />
          <path
            d="M899.756 423.478H835.177C835.177 421.306 836.938 419.547 839.105 419.547H895.828C897.995 419.547 899.756 421.306 899.756 423.478Z"
            fill="#F1A34F"
          />
          <path
            d="M900.042 390.963H834.571V389.984H900.042V390.963Z"
            fill="#D86713"
          />
          <path
            d="M733.585 323.608C734.161 309.56 735.41 297.347 736.904 288.827C739.282 275.246 741.423 267.43 741.449 267.347C741.761 266.154 746.291 261.319 756.36 261.47C766.428 261.621 765.473 267.957 765.473 267.957C765.473 268.172 765.442 268.371 765.401 268.518C765.303 268.846 756.063 301.921 756.461 344.624C756.465 345.226 756.537 346.262 756.491 346.951C756.491 346.954 733.16 347.545 733.156 346.951C732.34 343.219 732.739 332.877 733.585 323.608"
            fill="#D1A586"
          />
          <path
            d="M730.651 344.417C730.658 345.012 730.974 345.486 731.365 345.486H731.373C731.76 345.478 732.069 345 732.077 344.417H752.071C752.078 345.012 752.394 345.486 752.782 345.486H752.793C753.188 345.478 753.5 344.985 753.496 344.383C753.38 332.158 754.087 320.746 755.156 310.671C757.812 285.543 762.726 268.751 762.797 268.522C762.839 268.371 762.869 268.172 762.869 267.957C762.869 267.957 763.825 261.621 753.756 261.47C743.688 261.319 739.158 266.154 738.845 267.347C738.827 267.411 737.615 271.835 736.001 279.79C735.467 282.426 734.891 285.446 734.296 288.823C732.807 297.343 731.557 309.564 730.982 323.604C730.135 332.877 729.838 340.686 730.651 344.417"
            fill="#E5BD9E"
          />
          <path
            d="M730.651 344.417C730.658 345.012 730.974 345.486 731.365 345.486H731.373C731.76 345.478 732.069 345 732.077 344.417H752.071C752.078 345.012 752.394 345.486 752.782 345.486H752.793C753.188 345.478 753.5 344.985 753.496 344.383C753.38 332.158 754.087 320.746 755.156 310.671C751.849 294.726 739.071 282.531 736.001 279.79C735.467 282.426 734.891 285.446 734.296 288.823C732.807 297.343 731.557 309.564 730.982 323.604C730.135 332.877 729.838 340.686 730.651 344.417"
            fill="#DFB697"
          />
          <path
            d="M746.336 342.835C748.575 342.835 750.152 342.937 750.705 343.498C750.705 343.502 750.705 343.502 750.708 343.502C750.716 342.937 750.746 341.887 750.803 339.902C750.866 337.568 750.979 333.924 751.145 329.812C751.431 322.617 751.931 312.723 752.673 306.432C753.542 299.101 758.708 269.399 758.734 269.305C758.764 269.2 758.783 269.056 758.783 268.921C758.787 268.891 758.982 267.456 757.91 266.195C756.83 264.919 754.881 264.252 752.119 264.211C744.756 264.117 741.393 267.558 741.148 268.495C741.092 268.71 735.361 291.654 734.368 304.666C734.274 305.871 734.071 307.919 733.811 310.513C732.795 320.686 730.677 341.849 732.795 342.218C736.926 342.933 741.08 342.884 744.418 342.85C745.099 342.839 745.742 342.835 746.336 342.835V342.835ZM750.803 344.213L750.746 344.172C750.731 344.161 750.716 344.153 750.712 344.074H750.697C750.705 343.905 750.652 343.773 750.543 343.66C749.911 343.016 747.492 343.042 744.421 343.076C741.076 343.114 736.911 343.159 732.758 342.444C730.609 342.071 732.058 325.754 733.585 310.49C733.841 307.9 734.048 305.852 734.138 304.647C735.132 291.661 740.873 268.616 740.93 268.435C741.182 267.464 744.636 263.865 752.123 263.985C754.956 264.026 756.962 264.723 758.087 266.052C759.227 267.392 759.02 268.876 759.009 268.936C759.012 269.083 758.99 269.241 758.952 269.373C758.922 269.497 753.745 299.304 752.902 306.458C751.506 318.257 750.953 342.655 750.927 344.018C750.927 344.036 750.927 344.051 750.927 344.07L750.923 344.138L750.803 344.213"
            fill="#D1A586"
          />
          <path
            d="M754.975 345.486H676.583C676.583 345.486 678.408 338.197 723.807 339.281C755.935 340.049 754.975 345.486 754.975 345.486Z"
            fill="#E5BD9E"
          />
          <path
            d="M761.353 421.648C752.266 376.235 754.603 348.366 754.614 348.012C754.637 347.316 753.331 346.68 752.627 346.657C751.916 346.646 748.782 346.45 748.417 347.049C747.943 347.832 746.111 382.168 759.659 421.648H761.353Z"
            fill="#D1A586"
          />
          <path
            d="M688.161 421.648C697.251 376.235 694.914 348.366 694.903 348.012C694.881 347.316 696.186 346.68 696.886 346.657C697.597 346.646 700.735 346.45 701.1 347.049C701.574 347.832 703.406 382.168 689.858 421.648H688.161"
            fill="#D1A586"
          />
          <path
            d="M673.656 421.648C682.746 376.235 680.41 348.366 680.399 348.012C680.376 347.316 681.682 346.68 682.381 346.657C683.093 346.646 686.23 346.45 686.595 347.049C687.07 347.832 688.902 382.168 675.353 421.648H673.656"
            fill="#A0795F"
          />
          <path
            d="M746.75 421.648C737.664 376.235 740 348.366 740.012 348.012C740.034 347.316 738.729 346.68 738.025 346.657C737.314 346.646 734.18 346.45 733.815 347.049C733.341 347.832 731.509 382.168 745.054 421.648H746.75Z"
            fill="#A0795F"
          />
          <path
            d="M676.527 347.817H754.938C755.814 347.817 756.533 347.097 756.533 346.22V345.2C756.533 344.323 755.814 343.603 754.938 343.603H676.527C675.65 343.603 674.932 344.323 674.932 345.2V346.22C674.932 347.097 675.65 347.817 676.527 347.817Z"
            fill="#D1A586"
          />
          <path
            d="M436.912 322.245C437.492 308.005 438.741 295.619 440.231 286.982C442.613 273.213 444.753 265.292 444.78 265.209C445.092 263.996 449.622 259.098 459.687 259.249C469.755 259.399 468.803 265.826 468.803 265.826C468.803 266.041 468.773 266.244 468.728 266.395C468.634 266.726 459.389 300.261 459.792 343.555C459.796 344.161 459.864 345.211 459.822 345.911C459.822 345.915 436.491 346.514 436.483 345.911C435.671 342.128 436.07 331.642 436.912 322.245"
            fill="#D1A586"
          />
          <path
            d="M433.981 343.34C433.989 343.942 434.305 344.428 434.692 344.428H434.704C435.091 344.417 435.4 343.935 435.404 343.34H455.397C455.405 343.942 455.725 344.428 456.112 344.428H456.12C456.515 344.417 456.831 343.92 456.827 343.31C456.711 330.916 457.414 319.342 458.483 309.127C461.143 283.657 466.057 266.632 466.124 266.399C466.17 266.244 466.2 266.045 466.2 265.826C466.2 265.826 467.152 259.399 457.087 259.249C447.015 259.098 442.488 263.996 442.176 265.209C442.157 265.273 440.942 269.757 439.332 277.821C438.797 280.495 438.222 283.556 437.627 286.982C436.137 295.619 434.888 308.006 434.309 322.245C433.466 331.642 433.169 339.556 433.981 343.34"
            fill="#E5BD9E"
          />
          <path
            d="M433.981 343.34C433.989 343.942 434.305 344.428 434.692 344.428H434.704C435.091 344.417 435.4 343.935 435.404 343.34H455.397C455.405 343.942 455.725 344.428 456.112 344.428H456.12C456.515 344.417 456.831 343.92 456.827 343.31C456.711 330.916 457.414 319.342 458.483 309.127C455.179 292.964 442.402 280.6 439.332 277.821C438.797 280.495 438.222 283.556 437.627 286.982C436.137 295.619 434.888 308.006 434.309 322.245C433.466 331.642 433.169 339.556 433.981 343.34"
            fill="#DFB697"
          />
          <path
            d="M449.667 341.736C451.898 341.736 453.475 341.842 454.032 342.41C454.032 342.41 454.035 342.41 454.035 342.414C454.043 341.842 454.073 340.776 454.129 338.766C454.197 336.401 454.31 332.704 454.472 328.536C454.762 321.243 455.258 311.21 456.003 304.832C456.869 297.418 462.034 267.287 462.061 267.193C462.095 267.084 462.11 266.944 462.11 266.801C462.113 266.771 462.313 265.299 461.218 264.015C460.134 262.739 458.193 262.069 455.45 262.027C455.337 262.027 455.221 262.027 455.111 262.027C447.989 262.027 444.719 265.435 444.479 266.372C444.422 266.587 438.692 289.862 437.699 303.039L437.582 303.032L437.699 303.039C437.605 304.267 437.401 306.345 437.142 308.977C436.126 319.285 434.008 340.742 436.126 341.111C440.257 341.838 444.411 341.789 447.748 341.751C448.429 341.744 449.073 341.736 449.667 341.736V341.736ZM454.133 343.133L454.077 343.095C454.058 343.084 454.047 343.073 454.039 342.994H454.028C454.032 342.82 453.979 342.685 453.866 342.568C453.23 341.921 450.815 341.947 447.752 341.981C444.403 342.018 440.238 342.067 436.084 341.341C433.94 340.961 435.388 324.425 436.912 308.954C437.172 306.323 437.375 304.244 437.469 303.024C438.459 289.93 444.204 266.496 444.257 266.312C444.512 265.325 447.963 261.677 455.454 261.798C458.268 261.839 460.266 262.536 461.399 263.868C462.557 265.235 462.347 266.756 462.339 266.82C462.343 266.967 462.32 267.129 462.283 267.261C462.253 267.385 457.075 297.603 456.233 304.858C454.837 316.801 454.28 341.563 454.257 342.937C454.257 342.956 454.257 342.975 454.257 342.99L454.254 343.058L454.133 343.133"
            fill="#D1A586"
          />
          <path
            d="M458.302 344.428H379.914C379.914 344.428 381.739 337.034 427.137 338.137C459.265 338.916 458.302 344.428 458.302 344.428Z"
            fill="#E5BD9E"
          />
          <path
            d="M464.683 421.641C455.593 375.598 457.933 347.346 457.945 346.988C457.967 346.28 456.662 345.637 455.958 345.614C455.247 345.599 452.109 345.403 451.748 346.009C451.27 346.804 449.441 381.615 462.986 421.641H464.683"
            fill="#D1A586"
          />
          <path
            d="M391.491 421.641C400.582 375.598 398.245 347.346 398.234 346.988C398.211 346.28 399.517 345.637 400.217 345.614C400.928 345.599 404.066 345.403 404.427 346.009C404.905 346.804 406.733 381.615 393.188 421.641H391.491Z"
            fill="#D1A586"
          />
          <path
            d="M376.987 421.641C386.077 375.598 383.741 347.346 383.726 346.988C383.703 346.28 385.009 345.637 385.712 345.614C386.423 345.599 389.561 345.403 389.922 346.009C390.4 346.804 392.229 381.615 378.684 421.641H376.987"
            fill="#A0795F"
          />
          <path
            d="M450.081 421.641C440.991 375.598 443.327 347.346 443.342 346.988C443.365 346.28 442.059 345.637 441.356 345.614C440.645 345.599 437.507 345.403 437.146 346.009C436.668 346.804 434.839 381.615 448.384 421.641H450.081"
            fill="#A0795F"
          />
          <path
            d="M379.865 346.785H458.257C459.141 346.785 459.863 346.062 459.863 345.181V344.123C459.863 343.238 459.141 342.515 458.257 342.515H379.865C378.985 342.515 378.262 343.238 378.262 344.123V345.181C378.262 346.062 378.985 346.785 379.865 346.785Z"
            fill="#D1A586"
          />
          <path
            d="M488.079 284.881C488.079 284.881 494.554 287.509 499.159 280.901C499.159 280.901 491.687 279.632 488.079 284.881Z"
            fill="#6BB7BF"
          />
          <path
            d="M487.623 282.166C487.623 282.166 487.168 279.851 484.451 279.772C484.451 279.772 485.475 282.117 487.623 282.166Z"
            fill="#6BB7BF"
          />
          <path
            d="M488.989 268.609C488.989 268.609 492.127 268.947 493.305 265.502C493.305 265.502 489.903 265.883 488.989 268.609Z"
            fill="#6BB7BF"
          />
          <path
            d="M496.439 223.078C490.103 221.719 489.997 216.535 489.997 216.535C497.458 218.892 496.439 223.078 496.439 223.078Z"
            fill="#6BB7BF"
          />
          <path
            d="M496.875 221.896C496.875 221.896 500.83 223.504 503.64 219.468C503.64 219.468 499.076 218.692 496.875 221.896Z"
            fill="#6BB7BF"
          />
          <path
            d="M488.203 300.091L487.382 301.036C487.258 301.179 487.021 301.089 487.021 300.897C487.07 274.2 490.456 250.48 493.301 236.486C496.409 221.211 499.554 212.182 499.588 212.092C499.554 212.182 496.717 221.358 493.621 236.587C490.772 250.604 487.51 268.925 488.334 299.73C488.338 299.862 488.289 299.993 488.203 300.091"
            fill="#6BB7BF"
          />
          <path
            d="M499.535 208.451C498.523 209.265 494.652 212.728 498.407 215.402C498.407 215.402 501.285 216.313 502.237 214.095C502.967 212.401 503.162 210.515 503.215 209.713C503.226 209.506 503.072 209.329 502.865 209.31C502.643 209.291 502.346 209.242 502.052 209.125C501.695 208.99 501.514 208.451 501.033 208.331C500.732 208.256 500.423 208.195 500.073 208.225C499.874 208.24 499.69 208.327 499.535 208.451Z"
            fill="#F99746"
          />
          <path
            d="M497.387 214.434C497.387 214.434 498.531 215.353 498.106 216.821L498.094 217.367C498.094 217.367 498.399 216.008 499.806 215.586C499.806 215.586 498.538 215.729 497.387 214.434"
            fill="#6BB7BF"
          />
          <path
            d="M496.439 223.078C490.103 221.719 489.997 216.535 489.997 216.535C489.997 216.535 495.017 219.291 496.439 223.078Z"
            fill="#8AD8DB"
          />
          <path
            d="M490.351 219.528C490.351 219.528 486.367 221.053 483.639 216.964C483.639 216.964 488.214 216.279 490.351 219.528Z"
            fill="#6BB7BF"
          />
          <path
            d="M497.458 297.881L498.26 298.838C498.38 298.985 498.617 298.898 498.621 298.71C499.11 272.016 496.198 248.232 493.632 234.185C490.833 218.85 487.868 209.758 487.838 209.667C487.868 209.758 490.524 218.99 493.312 234.279C495.882 248.353 498.772 266.734 497.33 297.516C497.327 297.648 497.376 297.78 497.458 297.881"
            fill="#6BB7BF"
          />
          <path
            d="M487.962 206.03C488.959 206.866 492.759 210.405 488.951 212.999C488.951 212.999 486.054 213.854 485.148 211.618C484.455 209.912 484.293 208.018 484.26 207.22C484.248 207.013 484.41 206.836 484.617 206.825C484.839 206.806 485.136 206.765 485.433 206.655C485.791 206.524 485.983 205.989 486.468 205.88C486.769 205.812 487.078 205.756 487.428 205.793C487.627 205.816 487.811 205.902 487.962 206.03Z"
            fill="#F99746"
          />
          <path
            d="M489.994 212.054C489.994 212.054 488.827 212.95 489.222 214.426V214.972C489.222 214.972 488.944 213.606 487.548 213.158C487.548 213.158 488.812 213.323 489.994 212.054Z"
            fill="#6BB7BF"
          />
          <path
            d="M492.04 214.852C492.04 214.852 496.251 215.556 498.113 211.004C498.113 211.004 493.493 211.245 492.04 214.852Z"
            fill="#6BB7BF"
          />
          <path
            d="M500.615 293.058L500.024 294.154C499.934 294.323 499.682 294.286 499.641 294.101C493.869 268.036 492.007 244.147 491.732 229.867C491.435 214.283 492.541 204.784 492.552 204.69C492.541 204.784 491.766 214.359 492.067 229.897C492.341 244.2 493.15 262.791 500.668 292.674C500.702 292.802 500.679 292.942 500.615 293.058"
            fill="#6BB7BF"
          />
          <path
            d="M491.706 201.151C490.897 202.164 487.875 206.388 492.119 208.176C492.119 208.176 495.126 208.44 495.573 206.064C495.916 204.253 495.698 202.371 495.573 201.576C495.54 201.373 495.348 201.234 495.144 201.26C494.922 201.29 494.621 201.305 494.309 201.256C493.933 201.2 493.639 200.714 493.143 200.707C492.831 200.699 492.518 200.703 492.183 200.808C491.992 200.869 491.83 200.993 491.706 201.151"
            fill="#F99746"
          />
          <path
            d="M490.912 207.457C490.912 207.457 492.232 208.105 492.138 209.63L492.244 210.161C492.244 210.161 492.247 208.768 493.527 208.052C493.527 208.052 492.319 208.466 490.912 207.457"
            fill="#6BB7BF"
          />
          <path
            d="M495.513 210.161C495.513 210.161 495.513 206.829 498.384 205.782C498.384 205.782 499.016 208.564 495.513 210.161Z"
            fill="#6BB7BF"
          />
          <path
            d="M488.771 204.803C488.771 204.803 488.854 202.258 486.502 201.524C486.502 201.524 485.938 203.892 488.771 204.803Z"
            fill="#ED9F4A"
          />
          <path
            d="M496.488 220.111C496.57 220.183 497.714 217.634 495.393 215.586C495.393 215.586 494.422 218.316 496.488 220.111Z"
            fill="#ED9F4A"
          />
          <path
            d="M498.113 219.912C498.049 219.931 498.094 218.643 499.302 218.459C499.302 218.459 499.505 219.528 498.113 219.912Z"
            fill="#6BB7BF"
          />
          <path
            d="M486.084 215.586C486.084 215.586 485.069 213.478 481.81 213.843C481.81 213.843 482.296 216.106 486.084 215.586Z"
            fill="#6BB7BF"
          />
          <path
            d="M504.095 303.216H483.206C481.803 303.216 480.727 301.97 480.93 300.581L490.652 233.519C490.742 232.894 491.277 232.427 491.909 232.427H495.017C495.686 232.427 496.258 232.924 496.36 233.586L506.312 300.645C506.515 302 505.465 303.216 504.095 303.216Z"
            fill="#F99746"
          />
          <path
            d="M487.834 301.187L492.996 232.446C492.439 232.517 491.988 232.95 491.905 233.519L482.183 300.581C481.979 301.97 483.059 303.216 484.463 303.216H488.639C488.101 302.731 487.774 301.996 487.834 301.187"
            fill="#FFB278"
          />
          <path
            d="M692.698 295.893C692.698 295.893 678.367 312.271 675.436 312.004C672.437 311.733 670.609 310.788 668.001 312.004C666.128 312.881 660.205 317.648 661.797 317.331C663.385 317.015 666.263 316.646 667.023 316.575C668.069 316.473 669.747 316.45 670.887 316.255C671.61 316.127 674.213 316.055 675.079 316.025C678.852 315.901 696.69 305.472 696.69 305.472L692.698 295.893"
            fill="#FFB27D"
          />
          <path
            d="M668.483 280.589C668.178 281.376 666.812 281.797 666.139 281.963C666.41 281.342 666.575 280.668 666.624 279.964C667.038 279.391 667.696 279.06 668.178 279.147C668.607 279.226 668.867 279.591 668.483 280.589V280.589ZM669.119 278.401C668.551 278.047 667.441 278.187 666.639 278.356V277.193C666.639 276.933 666.62 276.681 666.59 276.432H654.543C654.513 276.681 654.494 276.933 654.494 277.193V279.557C654.494 282.9 657.225 285.634 660.567 285.634C662.376 285.634 664.006 284.828 665.119 283.563V283.567C665.119 283.567 667.982 282.859 668.882 281.79C669.785 280.72 670.074 278.992 669.119 278.401"
            fill="#C45446"
          />
          <path
            d="M655.48 277.193V279.557C655.48 282.897 658.211 285.634 661.552 285.634C661.827 285.634 662.102 285.615 662.369 285.574C659.411 285.174 657.113 282.622 657.113 279.557V277.193C657.113 276.933 657.131 276.681 657.162 276.432H655.529C655.499 276.681 655.48 276.933 655.48 277.193Z"
            fill="#E37970"
          />
          <path
            d="M663.039 285.845H658.083V285.103H663.039V285.845Z"
            fill="#C45446"
          />
          <path
            d="M702.643 212.725C702.643 212.725 703.29 204.498 715.115 206.633C718.242 207.198 720.39 201.622 725.507 203.61C736.524 207.887 737.175 202.235 740.358 210.168C741.69 213.489 750.167 217.352 747.578 223.09C744.99 228.828 749.324 232.687 746.28 237.182C744.704 239.509 745.343 243.665 737.912 243.812C734.214 243.888 728.45 250.751 724.296 251.994C720.146 253.24 707.673 251.444 708.143 245.744C708.512 241.293 703.327 241.666 700.14 236.55C697.36 232.081 702.327 230.955 699.67 223.73C697.721 218.432 702.793 217.145 702.643 212.725"
            fill="#1C468A"
          />
          <path
            d="M637.642 415.093C637.894 417.846 634.067 418.516 629.631 418.734C625.199 418.956 626.538 419.864 620.462 420.967C614.386 422.066 611.951 420.402 611.511 419.581C611.12 418.855 613.945 417.714 616.955 416.426C617.332 416.264 617.712 416.099 618.092 415.933C621.482 414.442 623.382 411.4 626.023 408.58C628.525 405.911 630.903 397.36 630.903 397.36L639.158 395.594C639.158 395.594 636.84 403.29 636.035 406.577C635.561 408.508 636.261 410.67 636.882 412.315C637.216 413.207 637.551 414.122 637.642 415.093"
            fill="#FFB27D"
          />
          <path
            d="M629.631 418.734C625.199 418.956 626.538 419.864 620.462 420.967C614.386 422.066 611.951 420.402 611.511 419.581C611.12 418.855 613.945 417.714 616.955 416.426L617.001 416.475C617.001 416.475 621.275 417.928 626.204 416.584C630.226 415.492 634.112 413.09 636.882 412.315C637.216 413.207 637.551 414.122 637.642 415.093C637.894 417.846 634.067 418.516 629.631 418.734"
            fill="#C65447"
          />
          <path
            d="M710.758 310.92C710.758 310.92 664.995 312.979 654.667 319.504C644.335 326.025 627.769 402.014 627.769 402.014C627.769 402.014 628.792 402.835 631.076 403.079C633.202 403.313 637.879 402.063 637.879 402.063C637.879 402.063 661.688 368.061 663.366 359.496C665.04 350.93 664.63 343.287 668.449 343.084C672.268 342.881 719.875 348.875 727.076 336.183C734.274 323.487 710.758 310.92 710.758 310.92"
            fill="#163560"
          />
          <path
            d="M656.518 415.402C656.774 418.154 652.944 418.824 648.511 419.043C644.075 419.265 645.415 420.172 639.342 421.275C633.266 422.375 630.828 420.711 630.391 419.89C629.996 419.163 632.822 418.023 635.832 416.735C636.212 416.573 636.592 416.407 636.972 416.242C640.358 414.751 642.262 411.709 644.903 408.889C647.405 406.219 649.779 397.669 649.779 397.669L658.038 395.903C658.038 395.903 655.72 403.599 654.915 406.886C654.441 408.817 655.141 410.978 655.762 412.624C656.093 413.516 656.431 414.434 656.518 415.402"
            fill="#FFB27D"
          />
          <path
            d="M648.511 419.043C644.075 419.265 645.415 420.172 639.342 421.275C633.266 422.375 630.828 420.711 630.391 419.89C629.996 419.163 632.822 418.023 635.832 416.735L635.881 416.784C635.881 416.784 640.151 418.237 645.084 416.897C649.102 415.801 652.989 413.399 655.762 412.624C656.093 413.516 656.431 414.434 656.518 415.402C656.774 418.154 652.944 418.824 648.511 419.043"
            fill="#C65447"
          />
          <path
            d="M728.499 312.004C728.499 312.004 679.755 314.312 669.687 321.232C659.618 328.156 646.017 404.728 646.017 404.728C646.017 404.728 647.07 405.511 649.366 405.669C651.495 405.816 656.119 404.386 656.119 404.386C656.119 404.386 678.589 369.484 679.932 360.858C681.275 352.237 680.568 344.612 684.376 344.262C688.183 343.908 735.986 348.042 742.687 335.08C749.388 322.113 728.499 312.004 728.499 312.004"
            fill="#1C468A"
          />
          <path
            d="M743.086 249.686C743.071 249.659 743.048 249.637 743.025 249.61C742.638 249.174 742.175 248.774 741.663 248.417L741.648 248.405C741.648 248.405 741.648 248.405 741.641 248.405C737.66 245.619 730.545 245.025 730.545 245.025V245.028C730.545 245.028 730.545 245.028 730.545 245.025C730.545 245.025 729.766 244.953 728.536 244.896C727.603 242.476 726.542 238.891 726.211 233.662L725.507 233.854L713.648 237.035C713.648 237.035 714.171 240.8 714.419 244.366C714.472 245.149 714.513 245.917 714.532 246.64C714.186 246.764 706.808 247.803 705.205 249.527C703.598 251.259 700.393 262.75 699.584 264.787L745.242 265.532C745.242 265.532 746.389 253.594 743.086 249.686"
            fill="#FFB27D"
          />
          <path
            d="M744.771 331.405C739.368 331.921 721.147 320.912 715.078 317.331C714.969 317.271 714.867 317.207 714.769 317.151C712.241 315.663 708.685 314.963 705.303 314.402C700.995 313.698 696.976 313.22 695.686 311.68C694.154 309.847 698.662 307.813 702.285 305.701C704.106 304.64 705.709 303.551 706.21 302.467C706.597 301.616 706.567 299.749 706.307 297.358V297.354C706.266 296.906 706.206 296.443 706.142 295.961C705.848 296.571 705.48 297.207 705.054 297.84C703.993 299.433 702.59 301.044 701.187 302.369C699.467 304 697.755 305.216 696.69 305.472C695.976 305.645 695.257 305.554 694.546 305.28C692.649 304.538 690.817 302.448 689.365 300.438C689.022 299.963 688.699 299.489 688.405 299.037C687.412 297.535 686.708 296.285 686.441 295.991C685.632 295.095 689.696 293.318 691.363 291.989C693.026 290.653 699.58 264.787 699.58 264.787C700.389 262.75 703.595 251.259 705.201 249.528C705.201 249.528 711.458 257.174 719.57 256.737C727.629 256.304 741.426 248.526 741.641 248.406C742.345 248.726 743.086 249.686 743.086 249.686C746.385 253.594 745.242 265.533 745.242 265.533C745.242 265.533 738.924 293.386 738.924 296.195C738.924 301.349 743.184 313.197 745.215 321.729C746.506 327.135 746.905 331.205 744.771 331.405"
            fill="#6BB7BF"
          />
          <path
            d="M713.648 237.035C713.648 237.035 714.175 240.8 714.419 244.366C721.132 243.729 724.277 237.351 725.507 233.854L713.648 237.035Z"
            fill="#F4A269"
          />
          <path
            d="M711.627 240.559C711.627 240.559 727.554 239.761 726.907 229.844C726.256 219.923 727.874 213.142 717.678 213.233C707.477 213.323 705.75 217.235 705.163 220.601C704.577 223.963 707.466 240.514 711.627 240.559Z"
            fill="#FFB27D"
          />
          <path
            d="M710.954 216.764C710.954 216.764 714.762 215.872 716.007 217.724C717.252 219.581 716.361 220.616 719.141 221.395C721.918 222.175 722.862 222.118 722.584 224.065C722.305 226.008 725.376 227.453 725.507 229.008C725.639 230.567 726.914 231.343 728.137 231.455C729.36 231.568 728.803 211.392 724.081 210.499C719.363 209.611 714.807 210.669 713.418 211.78C712.03 212.89 710.954 216.764 710.954 216.764"
            fill="#1C468A"
          />
          <path
            d="M710.954 216.764C710.954 216.764 707.252 216.505 706.586 218.617C705.92 220.729 706.808 221.23 705.863 222.506C704.919 223.786 705.464 226.053 705.464 226.053C705.464 226.053 698.143 212.555 705.863 211.667C713.584 210.778 713.381 212.352 710.954 216.764Z"
            fill="#1C468A"
          />
          <path
            d="M706.115 292.783C705.058 295.965 703.169 299.463 701.187 302.369C699.467 303.999 697.755 305.216 696.69 305.472C695.975 305.645 695.257 305.554 694.546 305.28C692.649 304.538 690.817 302.448 689.365 300.438C689.022 299.963 688.699 299.489 688.405 299.037C693.466 294.975 703.056 285.679 704.054 272.957C705.416 255.582 706.191 293.582 706.115 292.783"
            fill="#599DAD"
          />
          <path
            d="M694.546 305.28C696.31 302.584 699.903 299.926 705.054 297.84C702.684 301.394 698.624 305.005 696.69 305.472C695.975 305.645 695.257 305.554 694.546 305.28"
            fill="#599DAD"
          />
          <path
            d="M736.655 271.843C736.655 271.843 732.678 311.838 715.078 317.331C714.968 317.271 714.867 317.207 714.769 317.151C712.241 315.663 708.685 314.963 705.303 314.402C700.995 313.698 696.976 313.22 695.686 311.68C694.154 309.846 698.662 307.813 702.285 305.701C704.106 304.639 705.709 303.551 706.209 302.467C706.597 301.616 706.567 299.749 706.307 297.358V297.354C723.389 291.033 736.655 271.843 736.655 271.843Z"
            fill="#599DAD"
          />
          <path
            d="M741.133 259.998C739.289 251.681 730.925 256.451 730.925 256.451C728.024 255.792 706.74 290.314 705.035 291.097C703.591 291.76 683.977 286.059 678.021 284.301C676.482 283.096 671.079 278.898 670.135 278.827C669.028 278.744 661.646 280.641 661.691 281.816C661.74 282.987 663.467 284.708 666.191 285.144C668.257 285.472 671.76 286.835 673.995 287.174C673.995 287.174 695.644 301.933 704.862 303.732C713.159 305.351 742.977 268.311 741.133 259.998"
            fill="#FFB27D"
          />
          <path
            d="M692.062 288.213C692.062 288.213 687.073 301.044 693.052 305.923C699.031 310.799 712.007 309.158 726.218 289.324C740.433 269.493 746.216 258.691 738.838 255.54C731.46 252.389 725.364 257.332 721.579 265.047C717.644 273.066 710.393 284.169 706.044 284.591C701.694 285.013 692.062 288.213 692.062 288.213"
            fill="#6BB7BF"
          />
          <path
            d="M566.933 167.597L566.944 169.536C566.944 169.536 566.418 175.594 573.871 176.479C581.328 177.364 587.442 177.247 587.239 172.575C586.57 168.953 585.366 163.335 585.317 160.338C585.298 159.228 585.373 158.045 585.58 156.713L571.136 156.423L566.88 157.119L566.933 167.597"
            fill="#FFB27D"
          />
          <path
            d="M566.88 157.119L566.933 167.597C568.468 168.313 570.199 168.746 572.14 168.746C578.781 168.746 583.074 163.874 585.317 160.338C585.298 159.228 585.373 158.045 585.58 156.713L571.136 156.423L566.88 157.119"
            fill="#E2915A"
          />
          <path
            d="M586.686 154.386C585.012 163.411 573.371 163.117 568.34 162.548C566.925 162.39 566.034 162.21 566.034 162.21C564.438 161.784 563.547 159.265 563.133 155.971C562.313 149.45 563.351 139.876 564.45 137.428C566.109 133.742 569.228 129.759 580.952 132.636C592.676 135.512 588.838 142.82 586.686 154.386"
            fill="#FFB27D"
          />
          <path
            d="M596.213 421.644H579.718C579.842 420.782 580.26 418.147 581.035 415.722C581.302 414.875 581.614 414.058 581.968 413.343C583.571 410.139 593.76 412.179 593.76 412.179C593.76 412.179 594.708 412.989 595.445 416.087C595.773 417.454 596.062 419.265 596.213 421.644"
            fill="#233862"
          />
          <path
            d="M546.367 416.437C546.322 418.681 546.04 420.809 545.227 421.644H512.602C513.016 420.466 514.19 418.689 517.539 418.143C521.347 417.529 527.28 415.696 530.742 412.029C531.976 410.73 532.897 409.194 533.3 407.398C534.835 400.56 545.991 409.495 545.991 409.495C545.991 409.495 546.442 413.094 546.367 416.437Z"
            fill="#233862"
          />
          <path
            d="M568.069 342.515C567.614 345.019 567.328 347.075 567.249 348.547C566.214 368.791 550.22 415.078 547.36 416.155C542.932 417.827 535.964 414.276 532.318 413.113C530.805 412.631 529.786 411.106 530.124 409.559C538.041 373.125 540.953 320.663 542.014 289.606C542.548 273.959 545.231 263.153 545.231 263.153C545.231 263.153 584.237 252.739 584.466 265.913C584.673 277.569 571.546 323.288 568.069 342.515"
            fill="#2B478B"
          />
          <path
            d="M568.069 342.515L542.014 289.606C542.548 273.958 545.231 263.153 545.231 263.153C545.231 263.153 584.237 252.739 584.466 265.913C584.673 277.569 571.546 323.288 568.069 342.515Z"
            fill="#233862"
          />
          <path
            d="M559.389 265.958L580.011 415.5C580.011 415.5 589.064 417.687 596.107 415.937C596.107 415.937 602.142 336.405 601.642 317.177C601.138 297.949 605.973 265.724 600.536 262.17C595.103 258.62 559.389 265.958 559.389 265.958"
            fill="#2B478B"
          />
          <path
            d="M560.853 128.837C560.853 128.837 566.015 128.438 572.099 125.791C577.039 123.641 583.27 126.009 585.294 127.075C585.237 126.747 585.11 126.303 584.801 125.859C584.801 125.859 585.708 126.502 585.843 127.402C585.937 127.47 585.979 127.519 585.952 127.534C585.952 127.534 586.983 127.346 587.645 127.643C587.645 127.643 587.183 127.579 587.017 127.877C586.998 127.907 586.972 127.933 586.942 127.959C594.647 131.683 595.359 143.87 592.879 146.687C589.895 150.079 586.317 157.718 586.317 157.718C586.317 157.718 585.015 155.915 585.557 152.929C586.099 149.943 583.522 149.943 580.267 148.588C577.013 147.229 579.725 143.43 576.877 141.126C574.033 138.818 563.592 140.177 563.727 138.411C559.848 136.999 560.853 129.232 560.853 128.837"
            fill="#233862"
          />
          <path
            d="M589 175.173L584.252 277.099C584.252 277.099 544.629 277.746 545.761 268.774C546.89 259.802 560.04 178.294 560.04 178.294L589 175.173Z"
            fill="#E9F3FE"
          />
          <path
            d="M603.143 232.946C600.788 240.021 605.232 263.767 606.816 271.813C607.165 273.514 607.395 274.52 607.395 274.52C601.909 283.45 581.814 283.337 581.814 283.337C577.946 266.244 575.937 239.019 575.937 239.019L591.359 171.381L610.759 189.325C610.759 189.325 609.291 200.27 607.474 211.407C606.044 220.225 604.419 229.197 603.143 232.946Z"
            fill="#22407A"
          />
          <path
            d="M570.169 155.869C570.169 155.869 569.792 157.033 566.858 156.607C566.858 156.607 564.393 156.253 564.574 154.954C564.574 154.954 567.053 154.224 570.169 155.869Z"
            fill="white"
          />
          <path
            d="M532.152 217.747C532.115 217.709 532.115 217.63 532.115 217.593C532.115 216.124 537.717 212.875 543.782 209.046C543.861 208.971 543.899 208.929 543.899 208.929C543.903 208.929 543.907 208.926 543.914 208.922C543.805 212.051 543.816 215.119 544.001 217.977C544.347 223.274 543.963 229.607 543.32 236.056C540.434 231.542 532.717 219.411 532.152 217.747ZM547.902 176.626C547.902 176.626 547.898 176.641 547.891 176.667C546.954 177.575 520.504 203.274 515.379 213.338C510.161 223.549 539.222 243.891 539.222 243.891C539.222 243.891 541.096 244.629 542.39 244.339C541.021 255.631 539.486 266.045 540.396 270.491C542.04 278.529 549.471 281.229 549.471 280.608C549.471 280.412 552.188 251.406 553.663 236.271C556.827 203.82 564.751 171.588 564.751 171.588C556.101 172.488 547.902 176.626 547.902 176.626"
            fill="#22407A"
          />
          <path
            d="M590.121 171.257C590.17 170.285 585.565 168.941 585.565 168.941C585.565 168.941 580.294 176.253 571.613 176.381C571.613 176.381 574.085 181.2 577.001 182.446C577.001 182.446 589.835 177.036 590.121 171.257"
            fill="#D9E9F9"
          />
          <path
            d="M571.613 176.208C571.613 176.208 567.012 173.482 566.997 170.523C566.997 170.523 564.024 170.15 562.73 171.592C562.73 171.592 561.639 176.66 563.084 179.608C563.084 179.608 569.71 178.595 571.613 176.208Z"
            fill="#D9E9F9"
          />
          <path
            d="M574.736 175.771L568.498 174.276C568.498 174.276 567.682 174.344 567.704 175.361C567.727 176.377 569.461 179.348 570.229 179.585C570.996 179.826 576.211 177.827 574.736 175.771Z"
            fill="#BA4C43"
          />
          <path
            d="M589.395 170.756C589.444 169.785 586.329 167.782 586.329 167.782C586.329 167.782 580.294 174.834 571.613 174.962C571.613 174.962 574.085 179.781 577.001 181.027C577.001 181.027 589.109 176.535 589.395 170.756"
            fill="#E9F3FE"
          />
          <path
            d="M571.613 174.962C571.613 174.962 566.959 172.492 566.944 169.536C566.944 169.536 564.137 170.771 562.839 172.213C562.839 172.213 561.639 175.413 563.084 178.358C563.084 178.358 569.71 177.349 571.613 174.962"
            fill="#E9F3FE"
          />
          <path
            d="M559.419 245.269C559.63 247.653 560.721 249.87 562.482 251.489L565.244 254.034C565.936 254.674 567.027 254.588 567.61 253.846L571.034 249.497C571.952 248.33 572.381 246.854 572.242 245.378C571.922 242.088 571.324 235.744 570.85 229.626C570.458 224.667 570.15 219.848 570.124 216.919C570.048 207.563 571.903 177.725 571.903 177.725L569.665 177.842C569.665 177.842 564.096 189.423 561.18 205.183C560.462 209.061 559.905 213.192 559.63 217.469C559.63 217.469 558.464 234.509 559.419 245.269"
            fill="#C65447"
          />
          <path
            d="M559.419 245.269C559.63 247.653 560.721 249.87 562.482 251.489L565.244 254.034C565.936 254.674 567.027 254.588 567.61 253.846L571.034 249.497C571.952 248.33 572.381 246.854 572.242 245.378C571.922 242.088 571.324 235.744 570.85 229.626C564.653 222.66 562.143 213.037 561.18 205.183C560.462 209.061 559.905 213.192 559.63 217.469C559.63 217.469 558.464 234.509 559.419 245.269"
            fill="#BA4C43"
          />
          <path
            d="M537.371 245.544C537.371 242.946 539.655 240.86 542.221 241.252C542.936 241.361 543.575 241.655 544.023 242.246C545.788 244.599 547.47 251.448 544.339 251.768C543.064 251.896 541.427 251.003 540.167 250.043C538.887 249.072 537.371 247.543 537.371 245.936V245.544"
            fill="#FFB27D"
          />
          <path
            d="M606.815 271.812C601.134 265.894 591.318 254.256 591.668 244.701C592.13 231.32 607.474 211.407 607.474 211.407C606.044 220.224 604.419 229.196 603.143 232.946C600.788 240.021 605.231 263.767 606.815 271.812Z"
            fill="#233862"
          />
          <path
            d="M606.639 248.537C606.639 248.537 602.553 250.582 600.073 249.558C597.594 248.537 594.678 247.769 591.908 250.928C589.136 254.083 588.552 256.274 589.136 257.441C589.719 258.609 596.179 258.172 597.251 257.441C598.324 256.711 600.02 254.915 601.096 255.228C604.061 256.09 606.563 253.823 607.963 252.02C608.806 250.932 606.53 250.405 606.639 248.537Z"
            fill="#FFB27D"
          />
          <path
            d="M591.359 171.381C591.359 171.381 607.624 173.181 611.458 180.27C615.296 187.36 635.245 216.087 634.59 228.026C633.939 239.964 607.38 253.349 607.38 253.349C607.38 253.349 601.499 250.864 601.409 248.187C601.322 245.51 619.77 229.517 618.652 226.531C617.535 223.549 597.217 199.942 595.261 192.156C593.301 184.374 591.359 171.381 591.359 171.381"
            fill="#22407A"
          />
          <path
            d="M543.899 208.93C543.899 208.93 543.861 208.971 543.782 209.046C537.717 212.875 532.115 216.124 532.115 217.593C531.302 215.002 539.184 204.174 541.735 201.972C544.324 199.728 543.899 208.93 543.899 208.93"
            fill="#233862"
          />
          <path
            d="M586.329 167.782C586.329 167.782 573.976 219.535 575.944 239.031C575.944 239.031 580.485 218.199 591.408 201.132C591.408 201.132 587.424 197.623 587.638 196.328C587.638 196.328 590.599 195.451 593.47 196.042C593.47 196.042 593.154 173.734 591.363 171.377C589.572 169.02 586.329 167.782 586.329 167.782"
            fill="#233862"
          />
          <path
            d="M566.944 169.536C567.196 169.386 554.709 220.108 553.663 236.271C553.663 236.271 554.9 207.431 554.78 199.118C554.78 199.118 559.908 196.4 559.908 195.447C559.908 194.494 554.438 191.915 554.438 191.915C554.438 191.915 557.899 174.152 559.792 172.194C561.684 170.24 566.944 169.536 566.944 169.536"
            fill="#233862"
          />
          <path
            d="M406.312 393.719C406.963 394.469 407.046 395.305 406.722 396.197C406.722 396.201 406.722 396.204 406.718 396.208C406.12 397.861 404.145 399.706 401.853 401.547C401.56 401.784 401.3 401.999 401.074 402.198C401.014 402.251 400.954 402.304 400.898 402.356C400.852 402.398 400.807 402.439 400.762 402.477C398.625 404.45 399.43 404.902 395.589 408.9C391.213 413.459 388.195 413.542 387.338 413.128C386.615 412.774 388.086 410.357 389.723 407.639C389.802 407.507 389.877 407.375 389.96 407.243C390.178 406.882 390.393 406.513 390.607 406.152C392.522 402.88 392.033 401.344 391.578 396.479C391.209 392.522 385.426 374.379 385.426 374.379L393.82 372.933C393.82 372.933 396.345 387.379 399.129 389.604C400.619 390.79 402.286 390.805 403.716 391.686C403.817 391.747 403.919 391.807 404.013 391.875C404.829 392.413 405.657 392.97 406.312 393.719"
            fill="#FFB27D"
          />
          <path
            d="M406.312 393.719C406.963 394.469 407.046 395.305 406.722 396.197C406.722 396.201 406.722 396.204 406.718 396.208C405.985 397.861 404.062 399.695 401.846 401.532C401.556 401.773 401.3 401.991 401.074 402.198C401.014 402.251 400.954 402.304 400.898 402.356C400.852 402.398 400.807 402.439 400.762 402.477C398.625 404.45 399.43 404.902 395.589 408.9C391.213 413.459 388.195 413.542 387.338 413.128C386.615 412.774 388.086 410.357 389.723 407.639C390.573 407.326 394.531 405.715 397.526 401.882C400.164 398.516 401.921 394.19 403.716 391.686C403.817 391.747 403.919 391.807 404.013 391.875C404.829 392.413 405.657 392.97 406.312 393.719"
            fill="#C65447"
          />
          <path
            d="M338.647 388.475C338.132 391.065 334.437 390.636 330.313 389.627C326.189 388.618 327.168 389.815 321.298 389.164C315.429 388.516 313.649 386.325 313.468 385.452C313.31 384.676 316.211 384.405 319.323 384.043C319.714 384.002 320.105 383.953 320.501 383.904C324.011 383.464 326.585 381.193 329.775 379.33C332.796 377.568 337.308 370.376 337.308 370.376L345.359 371.017C345.359 371.017 341.134 377.436 339.501 380.229C338.538 381.871 338.591 384.043 338.711 385.719C338.771 386.63 338.831 387.56 338.647 388.475"
            fill="#FFB27D"
          />
          <path
            d="M330.313 389.627C326.189 388.618 327.168 389.815 321.298 389.164C315.429 388.516 313.649 386.325 313.468 385.452C313.31 384.676 316.211 384.405 319.323 384.043L319.349 384.104C319.349 384.104 322.871 386.604 327.758 386.72C331.743 386.814 335.961 385.674 338.711 385.719C338.771 386.63 338.831 387.56 338.647 388.475C338.132 391.065 334.437 390.636 330.313 389.627Z"
            fill="#C65447"
          />
          <path
            d="M356.564 270.145C356.564 270.145 354.645 265.442 352.535 265.25C350.424 265.058 343.711 264 343.23 264.96C342.752 265.92 343.23 269.376 344.671 270.623C346.108 271.873 355.029 273.887 355.029 273.887L356.564 270.145"
            fill="#FFB27D"
          />
          <path
            d="M369.503 336.958L386.856 383.686C386.856 383.686 389.52 383.945 392.075 383.207C394.426 382.53 397.124 380.749 397.124 380.749C397.124 380.749 392.819 335.881 384.926 326.552C377.036 317.218 369.503 336.958 369.503 336.958"
            fill="#AA413E"
          />
          <path
            d="M438.131 318.054C438.131 318.054 388.274 301.183 377.156 304.775C366.034 308.363 332.65 374.834 332.65 374.834C332.65 374.834 333.402 375.836 335.46 376.607C337.372 377.327 342.003 377.281 342.003 377.281C342.003 377.281 372.133 351.435 375.719 343.897C379.308 336.36 380.742 329.184 384.328 329.899C387.917 330.618 430.599 347.489 440.287 337.436C449.972 327.388 447.436 314.331 447.436 314.331L438.131 318.054Z"
            fill="#C65447"
          />
          <path
            d="M407.663 239.573C406.869 237.928 405.977 235.006 405.541 229.799C405.608 230.315 406.508 236.885 409.032 240.604C419.402 247.415 439.275 270.163 438.88 274.474C438.88 274.474 445.882 262.592 446.002 262.52C446.002 262.52 458.915 246.09 443.61 236.678C435.832 231.892 435.874 225.751 436.197 220.42C436.525 215.085 434.075 192.126 418.495 198.135C418.495 198.135 415.993 197.021 414.872 197.19C414.872 197.19 415.786 197.363 416.252 197.845C414.446 197.736 411.862 197.872 409.709 199.095C403.994 202.344 398.885 231.486 407.663 239.573"
            fill="#B5453C"
          />
          <path
            d="M409.645 240.943C409.593 240.966 414.65 243.594 418.457 242.551C422.035 241.576 424.372 236.934 424.323 236.922C422.807 236.621 422.37 234.535 422.404 225.582L421.719 225.714L410.198 227.999C410.198 227.999 410.458 231.625 410.466 235.043C410.477 237.916 410.3 240.635 409.645 240.943"
            fill="#FFB27D"
          />
          <path
            d="M410.199 227.999C410.199 227.999 410.458 231.625 410.466 235.044C416.915 234.863 420.323 228.978 421.719 225.714L410.199 227.999"
            fill="#ED975D"
          />
          <path
            d="M422.908 224.46C422.908 224.46 426.287 219.118 427.1 214.551C427.675 211.29 426.016 199.201 413.878 200.944C413.878 200.944 410.353 201.29 407.038 203.53C404.404 205.311 400.6 209.155 404.852 219.705L405.958 223.267L422.908 224.46"
            fill="#B5453C"
          />
          <path
            d="M408.043 231.233C408.043 231.233 423.3 231.485 423.307 221.979C423.318 212.472 425.294 206.098 415.556 205.537C405.819 204.972 403.923 208.602 403.148 211.772C402.373 214.946 404.077 230.925 408.043 231.233"
            fill="#FFB27D"
          />
          <path
            d="M408.611 205.304C408.611 205.304 412.787 216.459 419.195 218.109C425.606 219.758 428.383 218.037 428.383 218.037C428.383 218.037 423.469 214.129 422.449 207.311C422.449 207.311 411.76 199.995 408.611 205.304"
            fill="#B5453C"
          />
          <path
            d="M409.645 206.211C409.645 206.211 406.526 208.7 405.766 211.121C405.003 213.542 404.664 218.527 403.212 218.357C403.212 218.357 400.062 210.774 403.599 206.486C407.35 201.938 409.645 206.211 409.645 206.211"
            fill="#B5453C"
          />
          <path
            d="M449.829 318.318C449.005 320.603 446.484 321.19 443.102 320.795C436.653 320.042 427.077 315.709 420.177 312.715C409.653 308.149 404.871 312.437 401.522 309.534C398.174 306.627 405.349 300.17 399.129 270.178C397.022 260.009 410.383 238.202 410.383 238.202C410.383 238.202 411.538 244.516 424.323 236.922C424.774 236.655 429.809 244.11 434.655 253.304C439.998 263.443 445.115 275.694 443.61 282.008C440.742 294.041 452.222 311.676 449.829 318.318"
            fill="#699DEE"
          />
          <path
            d="M410.383 238.202L402.504 270.555C402.504 270.555 401.522 272.302 399.983 274.791C396.375 280.63 389.697 290.547 385.419 291.556C383.312 292.053 378.823 290.295 373.86 287.787C364.473 283.04 353.373 275.604 353.373 275.604C352.659 271.297 356.402 267.784 356.402 267.784C356.402 267.784 378.883 276.24 381.114 276.398C385.983 276.748 390.935 253.243 395.483 245.409C398.772 239.746 410.383 238.202 410.383 238.202"
            fill="#699DEE"
          />
          <path
            d="M411.436 225.473C411.436 225.473 411.15 226.678 408.148 226.493C408.148 226.493 405.627 226.339 405.702 225.01C405.702 225.01 408.148 224.065 411.436 225.473Z"
            fill="white"
          />
          <path
            d="M449.829 318.318C449.005 320.603 446.484 321.19 443.102 320.795C438.639 318.849 419.36 311.375 419.578 306.311C419.898 298.815 423.284 298.574 420.892 289.324C418.973 281.891 436.784 268.078 439.625 265.073C444.968 275.216 445.114 275.694 443.609 282.008C440.742 294.041 452.222 311.676 449.829 318.318"
            fill="#4A75CB"
          />
          <path
            d="M399.983 274.791C396.375 280.63 389.697 290.547 385.419 291.556C383.312 292.053 378.823 290.295 373.86 287.787C377.484 288.721 381.001 288.695 384.422 288.363C388.131 288.006 389.207 283.458 395.066 276.639C398.866 272.215 399.799 273.33 399.983 274.791"
            fill="#4A75CB"
          />
          <path
            d="M417.844 289.143C417.844 289.143 414.616 286.631 411.564 287.226C408.517 287.825 407.023 289.922 407.143 290.878C407.26 291.835 408.874 294.527 411.207 294.768C413.54 295.005 420.177 293.329 420.177 293.329L417.844 289.143Z"
            fill="#FFB27D"
          />
          <path
            d="M424.323 236.922C424.323 236.922 436.758 237.69 441.059 243.695C447.12 252.152 457.64 286.669 454.773 294.568L416.948 294.406C416.948 294.406 416.03 290.122 417.306 288.047C418.581 285.973 439.305 282.622 440.265 281.665C441.22 280.705 428.307 262.999 428.307 260.126C428.307 257.257 424.323 236.922 424.323 236.922"
            fill="#699DEE"
          />
          <path
            d="M414.597 303.28H368.807L360.552 274.474H406.274L414.597 303.28"
            fill="#1C468A"
          />
          <path
            d="M368.961 302.158H428.827V303.28H368.961V302.158Z"
            fill="#163560"
          />
          <path
            d="M383.346 288.409C383.056 287.396 383.643 286.575 384.655 286.575C385.667 286.575 386.721 287.396 387.01 288.409C387.3 289.421 386.717 290.242 385.705 290.242C384.693 290.242 383.639 289.421 383.346 288.409"
            fill="#163560"
          />
          <path
            d="M270.71 237.905C270.71 237.905 275.716 233.812 277.514 233.79C279.312 233.771 282.728 232.871 282.594 233.455C282.459 234.038 279.581 234.803 280.076 235.074C280.571 235.345 284.752 234.219 285.921 234.893C287.089 235.567 289.832 238.357 287.629 239.573C285.426 240.789 278.817 242.72 277.109 242.498C275.401 242.272 271.534 242.001 271.534 242.001L270.71 237.905"
            fill="#FFB27D"
          />
          <path
            d="M206.787 390.116L210.985 407.812L217.273 407.774L217.503 390.116H206.787Z"
            fill="#FFB27D"
          />
          <path
            d="M259.677 390.873L271.621 407.812L276.276 401.829L269.088 388.543L259.677 390.873Z"
            fill="#FFB27D"
          />
          <path
            d="M235.2 176.953C235.2 176.95 235.2 176.95 235.2 176.95C235.2 176.904 235.196 176.863 235.189 176.818C235.11 175.937 235.009 175.067 234.89 174.201C234.89 174.197 234.89 174.197 234.89 174.197C234.531 171.543 234.013 168.99 233.383 166.713C233.02 165.406 232.624 164.186 232.197 163.091C232.132 162.921 232.067 162.763 232.006 162.601L232.002 162.597C230.981 160.101 229.816 158.309 228.625 157.635C226.453 156.4 223.852 156.265 222.033 156.37C222.501 155.888 223.425 155.711 223.425 155.711C222.296 155.542 219.778 156.664 219.778 156.664C204.083 150.613 201.616 173.734 201.946 179.107C202.274 184.48 196.67 186.234 188.506 190.466C172.926 198.542 171.56 209.359 171.56 209.359C171.678 209.43 171.808 209.513 171.941 209.603C172.714 208.297 174.307 205.835 175.649 205.462C175.595 205.582 174.063 208.85 173.487 210.722C175.455 212.22 178.149 214.494 181.062 217.036C181.062 217.036 181.062 217.036 181.065 217.039C184.964 220.443 189.247 224.325 192.675 227.468C192.65 226.395 192.693 224.871 193.085 224.065L193.739 228.011L193.825 228.526C196.012 230.537 197.735 232.141 198.609 232.962C198.699 233.044 198.778 233.12 198.85 233.184C199.105 233.425 199.242 233.553 199.242 233.553C199.116 232.175 201.051 228.918 204.083 224.901C204.292 224.618 204.511 224.336 204.734 224.05C205.709 222.781 206.784 221.452 207.931 220.089C208.345 219.596 208.762 219.103 209.193 218.602C209.193 218.598 209.197 218.598 209.197 218.598C209.542 218.195 209.891 217.796 210.251 217.389L210.254 217.386C211.103 216.422 211.977 215.454 212.866 214.487C215.167 211.975 217.577 209.506 219.929 207.258C223.346 203.986 226.636 201.192 229.305 199.438C229.406 199.291 229.503 199.141 229.592 198.986C230.089 198.184 230.513 197.273 230.877 196.336C230.988 196.057 231.093 195.771 231.189 195.488C232.236 192.48 232.704 189.416 232.804 188.685C232.549 191.701 232.139 193.945 231.686 195.616C231.585 195.985 231.485 196.321 231.38 196.637V196.641C231.146 197.348 230.912 197.928 230.682 198.403C231.139 197.981 231.556 197.507 231.941 196.976C232.193 196.633 232.43 196.264 232.65 195.876C235.272 191.306 235.836 183.99 235.2 176.953"
            fill="#163560"
          />
          <path
            d="M228.688 199.781C228.741 199.803 223.646 202.45 219.814 201.403C216.209 200.417 213.854 195.741 213.903 195.729C215.43 195.428 215.87 193.327 215.838 184.306L216.528 184.442L228.131 186.742C228.131 186.742 227.868 190.398 227.86 193.839C227.852 196.731 228.027 199.472 228.688 199.781"
            fill="#FFB27D"
          />
          <path
            d="M215.566 161.419C215.566 161.419 221.291 155.323 228.477 161.106C228.477 161.106 224.295 160.384 215.566 161.419Z"
            fill="#E37970"
          />
          <path
            d="M228.132 186.742C228.132 186.742 227.868 190.398 227.86 193.839C221.367 193.655 217.934 187.729 216.528 184.442L228.132 186.742Z"
            fill="#ED975D"
          />
          <path
            d="M215.329 183.181C215.329 183.181 211.927 177.8 211.11 173.2C210.527 169.913 212.198 157.741 224.425 159.491C224.425 159.491 227.976 159.841 231.313 162.1C233.968 163.893 237.799 167.767 233.515 178.392L232.403 181.98L215.329 183.181"
            fill="#163560"
          />
          <path
            d="M274.381 397.187L268.231 397.375L261.573 397.578C261.573 397.578 246.194 380.444 237.567 352.978C237.366 352.342 237.155 351.694 236.93 351.039C232.209 337.267 222.422 319.974 217.264 304.323C216.443 301.831 215.706 299.485 215.045 297.264C214.833 296.552 214.627 295.856 214.431 295.167C210.63 281.952 209.529 273.277 208.515 264.004L245.758 264.305C245.758 264.305 251.77 327.606 274.381 397.187"
            fill="#2B478B"
          />
          <path
            d="M240.544 242.89C240.45 260.623 243.144 268.232 243.144 268.232C243.144 268.232 227.198 276.338 208.246 270.37C208.023 270.299 192.554 266.767 192.554 266.767C192.871 266.048 195.691 254.098 196 253.439C200.002 244.844 203.04 241.071 203.515 238.428C204.395 233.492 204.414 228.387 203.975 223.572C202.819 210.823 199.38 200.24 199.38 200.24C204.544 199.061 209.38 196.998 214.754 194.98C215.99 196.52 219.77 198.131 223.048 198.06C226.823 197.977 228.047 196.358 227.851 194.592C231.874 196.832 235.084 198.948 235.084 198.948C238.503 204.89 245.438 210.661 245.94 219.78C246.064 222.02 240.546 242.393 240.544 242.89"
            fill="#E7F1FD"
          />
          <path
            d="M230.3 190.003C230.3 190.003 214.937 190.255 214.927 180.681C214.916 171.103 212.926 164.687 222.735 164.118C232.543 163.554 234.453 167.206 235.233 170.402C236.014 173.595 234.296 189.69 230.3 190.003Z"
            fill="#FFB27D"
          />
          <path
            d="M229.732 163.885C229.732 163.885 225.525 175.12 219.07 176.78C212.614 178.444 209.814 176.712 209.814 176.712C209.814 176.712 214.766 172.774 215.793 165.903C215.793 165.903 226.559 158.539 229.732 163.885Z"
            fill="#163560"
          />
          <path
            d="M228.689 164.796C228.689 164.796 231.83 167.307 232.596 169.743C233.362 172.183 233.707 177.202 235.169 177.032C235.169 177.032 238.338 169.397 234.776 165.075C231 160.497 228.689 164.796 228.689 164.796Z"
            fill="#163560"
          />
          <path
            d="M210.774 406.822C210.774 406.822 211.28 410.327 209.973 414.073C209.973 414.073 208.943 418.768 213.562 418.855C218.18 418.941 219.313 418.504 218.79 415.628C218.267 412.751 217.273 407.774 217.273 407.774L210.774 406.822"
            fill="#FFB27D"
          />
          <path
            d="M219.4 421.641H209.285C208.871 419.559 209.787 415.12 209.938 414.265C209.948 414.201 209.959 414.156 209.967 414.122C209.97 414.092 209.974 414.077 209.974 414.077C215.199 418.87 218.472 413.952 218.472 413.952C218.476 413.96 218.48 413.968 218.483 413.979C219.249 415.858 219.411 420.906 219.4 421.641Z"
            fill="#C45446"
          />
          <path
            d="M287.405 416.099C287.405 416.099 278.891 406.641 276.276 401.829L269.946 405.075L284.098 418.373L287.409 417.94L287.405 416.099"
            fill="#FFB27D"
          />
          <path
            d="M292.812 421.641C292.812 421.641 282.271 421.641 282.102 421.641C280.524 421.641 279.265 419.024 277.565 415.624C276.87 414.231 275.309 413.467 273.71 413.045L273.752 421.641H271.28L269.005 412.552C267.496 409.777 268.884 407.262 269.946 405.075C271.179 405.071 274.499 405.918 280.789 413.007C282.856 415.338 285.139 416.166 287.405 416.099C287.436 416.117 287.468 416.132 287.499 416.147C292.726 418.501 292.812 421.641 292.812 421.641"
            fill="#C45446"
          />
          <path
            d="M268.231 397.375L261.573 397.578C261.573 397.578 246.194 380.444 237.567 352.978C237.366 352.342 237.155 351.694 236.93 351.039C232.209 337.267 222.422 319.974 217.264 304.323C216.443 301.831 215.706 299.485 215.045 297.264C214.833 296.552 214.627 295.856 214.431 295.167L219.915 291.003C219.915 291.003 236.381 317.685 241.478 342.794C245.907 364.605 263.64 390.847 268.231 397.375"
            fill="#233862"
          />
          <path
            d="M220.487 345.132C220.581 357.342 219.965 385.414 218.375 397.036H212.478C209.218 397.036 207.592 396.991 207.592 396.991C203.606 376.784 200.769 360.064 198.704 345.655C197.011 333.83 195.505 323.694 194.347 314.971C193.181 306.187 192.37 298.834 192.08 292.622C192.036 291.643 192.002 290.69 191.984 289.768C191.965 288.838 191.96 287.938 191.968 287.061L224.147 283.921C223.742 305.317 220.435 338.035 220.487 345.132"
            fill="#2B478B"
          />
          <path
            d="M212.478 397.036C209.218 397.036 207.592 396.991 207.592 396.991C203.606 376.784 200.769 360.064 198.704 345.655C197.011 333.83 195.505 323.694 194.347 314.971C193.181 306.187 192.37 298.834 192.08 292.622L203.888 299.572C203.888 299.572 196.352 302.234 199.227 322.373C202.103 342.515 208.476 394.186 212.478 397.036"
            fill="#233862"
          />
          <path
            d="M213.997 292.422C213.997 292.422 211.731 300.619 203.889 299.572C196.047 298.525 184.895 293.819 184.895 293.819C184.895 293.819 188.246 283.22 192.413 269.301C197.458 252.445 198.714 228.76 201.657 215.055C202.483 211.215 208.037 209.969 208.247 207.672L214.753 195.04C214.753 195.04 224.454 216.828 224.977 222.322C225.499 227.815 213.997 292.422 213.997 292.422"
            fill="#F99746"
          />
          <path
            d="M208.515 238.496C208.165 247.393 205.055 262.562 192.562 269.23C192.514 269.256 192.463 269.279 192.413 269.301C197.458 252.445 197.393 236.278 200.337 222.574C207.052 221.173 208.706 233.602 208.515 238.496"
            fill="#ED7D2B"
          />
          <path
            d="M289.654 233.18H277.609C277.602 233.236 277.591 233.466 277.573 233.79C277.527 234.882 277.451 237.02 277.465 237.22C277.635 239.776 279.411 241.184 281.13 241.858H281.134C281.145 241.866 281.149 241.869 281.159 241.873C281.565 242.031 281.972 242.148 282.349 242.231C282.637 242.291 282.914 242.333 283.163 242.355C283.332 242.374 283.486 242.381 283.63 242.381C284.511 242.381 285.346 242.189 286.101 241.851C288.219 240.902 289.704 238.767 289.704 236.305V233.937C289.704 233.681 289.686 233.432 289.654 233.18"
            fill="#C45446"
          />
          <path
            d="M288.669 233.18H287.036C287.068 233.428 287.086 233.681 287.086 233.937V236.305C287.086 237.954 286.421 239.456 285.346 240.555C284.813 241.094 284.18 241.538 283.479 241.851C283.119 242.013 282.742 242.141 282.349 242.231C282.181 242.269 282.008 242.299 281.832 242.321C282.098 242.363 282.371 242.381 282.648 242.381C282.821 242.381 282.993 242.374 283.163 242.355C283.853 242.302 284.511 242.125 285.115 241.851C286.244 241.342 287.194 240.499 287.834 239.449C287.834 239.449 287.834 239.449 287.838 239.445C288.09 239.027 288.298 238.571 288.446 238.093C288.622 237.528 288.715 236.93 288.715 236.305V233.937C288.715 233.681 288.701 233.428 288.669 233.18Z"
            fill="#E37970"
          />
          <path
            d="M281.158 242.592H286.114V241.851H281.158V242.592Z"
            fill="#C45446"
          />
          <path
            d="M194.794 258.243C194.794 258.243 200.397 257.031 201.837 258.631C203.277 260.231 204.085 262.777 202.647 263.669C201.208 264.565 197.042 262.11 195.543 263.1C194.47 263.808 194.131 265.612 193.053 264.983C191.975 264.35 190.838 260.22 190.838 260.22L194.794 258.243"
            fill="#FFB27D"
          />
          <path
            d="M214.753 195.04C214.753 195.04 199.634 195.703 196 199.08C192.367 202.458 170.608 228.553 170.248 235.39C169.888 242.227 189.31 261.662 189.31 261.662C189.31 261.662 194.704 260.359 197.042 256.963C197.042 256.963 184.994 235.465 185.713 234.528C186.432 233.59 206.843 216.855 208.515 220.567C209.956 223.767 214.753 195.04 214.753 195.04"
            fill="#F99746"
          />
          <path
            d="M272.269 235.687C272.269 235.687 255.006 241.448 252.848 240.966C250.69 240.488 247.608 217.081 245.942 209.057C243.796 198.726 235.614 196.671 235.614 196.671L227.851 194.592C227.851 194.592 236.74 216.565 237.001 221.011C237.263 225.458 238.047 293.732 238.047 293.732C238.047 293.732 237.524 296.872 243.536 295.562C249.549 294.256 251.117 292.945 251.117 292.945C251.117 292.945 248.511 273.861 247.286 256.918C253.412 255.871 273.108 245.883 273.108 245.883C276.165 241.079 272.269 235.687 272.269 235.687"
            fill="#F99746"
          />
          <path
            d="M320.519 309.391L317.374 327.218V327.222L308.69 376.464L300.928 420.485C300.811 421.151 300.217 421.641 299.521 421.641C298.911 421.641 298.437 421.117 298.52 420.526L305.213 370.625L312.373 317.245L313.453 309.191L320.519 309.391"
            fill="#C69D7F"
          />
          <path
            d="M354.89 309.391L351.744 327.218V327.222L343.06 376.464L335.298 420.485C335.182 421.151 334.587 421.641 333.895 421.641C333.282 421.641 332.808 421.117 332.89 420.526L339.584 370.625L346.744 317.245L347.824 309.191L354.89 309.391"
            fill="#C69D7F"
          />
          <path
            d="M317.374 327.218C317.788 319.56 312.374 317.245 312.374 317.245L313.453 309.191L320.519 309.391L317.374 327.218"
            fill="#A0795F"
          />
          <path
            d="M617.034 421.641C616.338 421.641 615.744 421.151 615.627 420.485L608.731 381.374L598.813 325.121L596.04 309.391L603.102 309.191L604.328 318.321L612.933 382.492L618.039 420.526C618.114 421.117 617.644 421.641 617.034 421.641Z"
            fill="#C69D7F"
          />
          <path
            d="M604.328 318.322C599.753 320.343 598.813 325.121 598.813 325.121L596.04 309.391L603.102 309.191L604.328 318.322Z"
            fill="#A0795F"
          />
          <path
            d="M656.642 421.641C655.95 421.641 655.355 421.151 655.235 420.485L648.342 381.374L638.42 325.121L635.647 309.391L642.713 309.191L643.94 318.321L652.545 382.492L657.647 420.526C657.726 421.117 657.255 421.641 656.642 421.641"
            fill="#C69D7F"
          />
          <path
            d="M643.94 318.322C639.361 320.343 638.42 325.121 638.42 325.121L635.647 309.391L642.713 309.191L643.94 318.322"
            fill="#A0795F"
          />
          <path
            d="M655.687 315.569H287.068C283.709 315.569 280.96 312.817 280.96 309.455V309.331C280.96 305.969 283.709 303.216 287.068 303.216H655.687C659.046 303.216 661.797 305.969 661.797 309.331V309.455C661.797 312.817 659.046 315.569 655.687 315.569Z"
            fill="#E0B594"
          />
          <path
            d="M359.664 297.972C359.36 298.759 357.994 299.18 357.32 299.346C357.587 298.725 357.757 298.051 357.806 297.347C358.22 296.774 358.878 296.443 359.36 296.53C359.789 296.609 360.048 296.978 359.664 297.972ZM360.3 295.784C359.732 295.434 358.622 295.57 357.821 295.739V294.576C357.821 294.32 357.802 294.064 357.768 293.815H345.724C345.694 294.064 345.675 294.32 345.675 294.576V296.94C345.675 300.283 348.407 303.017 351.748 303.017C353.554 303.017 355.183 302.215 356.301 300.946V300.95C356.301 300.95 359.164 300.242 360.063 299.173C360.962 298.104 361.256 296.375 360.3 295.784"
            fill="#C45446"
          />
          <path
            d="M346.661 294.576V296.94C346.661 300.28 349.393 303.017 352.734 303.017C353.009 303.017 353.283 302.998 353.547 302.957C350.593 302.558 348.294 300.005 348.294 296.94V294.576C348.294 294.32 348.313 294.064 348.343 293.815H346.71C346.68 294.064 346.661 294.32 346.661 294.576"
            fill="#E37970"
          />
          <path
            d="M354.22 303.228H349.265V302.486H354.22V303.228Z"
            fill="#C45446"
          />
          <path
            d="M530.828 297.972C530.523 298.759 529.157 299.18 528.484 299.346C528.751 298.725 528.92 298.051 528.966 297.347C529.383 296.774 530.042 296.443 530.52 296.53C530.952 296.609 531.212 296.978 530.828 297.972ZM531.464 295.784C530.892 295.434 529.786 295.57 528.981 295.739V294.576C528.981 294.32 528.966 294.064 528.932 293.815H516.888C516.858 294.064 516.839 294.32 516.839 294.576V296.94C516.839 300.283 519.571 303.017 522.912 303.017C524.718 303.017 526.347 302.215 527.464 300.946L527.461 300.95C527.461 300.95 530.328 300.242 531.227 299.173C532.126 298.104 532.42 296.375 531.464 295.784"
            fill="#C45446"
          />
          <path
            d="M517.825 294.576V296.94C517.825 300.28 520.556 303.017 523.894 303.017C524.172 303.017 524.447 302.998 524.71 302.957C521.757 302.558 519.458 300.005 519.458 296.94V294.576C519.458 294.32 519.473 294.064 519.507 293.815H517.874C517.844 294.064 517.825 294.32 517.825 294.576"
            fill="#E37970"
          />
          <path
            d="M525.384 303.228H520.428V302.486H525.384V303.228Z"
            fill="#C45446"
          />
          <path
            d="M83.9239 210.398V421.641H28.2321C28.2321 421.641 27.3942 413.425 27.1459 400.161C27.0059 392.432 27.056 382.985 27.5993 372.451C27.6459 371.592 27.6926 370.719 27.743 369.842C28.0271 365.015 28.4082 359.97 28.9225 354.77C28.9692 354.311 29.0162 353.848 29.0666 353.381C29.6276 347.948 30.3252 342.301 31.1955 336.495C31.9043 331.781 32.7208 326.955 33.6772 322.056C33.7419 321.714 33.8104 321.367 33.8785 321.021C34.3714 318.529 34.9 316.021 35.4648 313.487C35.6841 312.497 35.9106 311.499 36.1409 310.502C36.5939 308.559 37.0687 306.601 37.565 304.647C38.7735 299.847 40.122 295.016 41.6184 290.167C41.7692 289.677 41.9242 289.177 42.0751 288.676C42.755 286.519 43.4669 284.354 44.2043 282.181C45.3334 278.887 46.531 275.585 47.808 272.294C48.6027 270.227 49.4372 268.168 50.2966 266.105C58.4427 246.594 69.3544 227.495 83.9239 210.398"
            fill="#DEEDFF"
          />
          <path
            d="M1024.77 425.168H1.55037C0.809155 425.168 0.202271 424.562 0.202271 423.821V422.857C0.202271 422.115 0.809155 421.505 1.55037 421.505H1024.77C1025.51 421.505 1026.12 422.115 1026.12 422.857V423.821C1026.12 424.562 1025.51 425.168 1024.77 425.168Z"
            fill="#2E3552"
          />
        </svg>